<svg width="266" height="73" viewBox="0 0 266 73" fill="none" xmlns="http://www.w3.org/2000/svg">
<path d="M1698 2155 c-194 -27 -432 -105 -579 -191 -133 -79 -245 -225 -285
-374 -18 -68 -24 -225 -12 -295 7 -40 7 -40 -40 -66 -63 -36 -110 -49 -190
-57 l-67 -7 0 -67 c0 -97 16 -110 132 -116 48 -2 128 1 177 7 l89 11 87 -35
c284 -114 547 -107 743 18 31 20 108 94 184 178 195 215 383 369 470 385 19 4
31 10 26 15 -16 15 -249 87 -348 107 -189 39 -421 55 -413 30 3 -9 39 -15 109
-20 172 -11 344 -43 512 -96 54 -17 66 -32 26 -32 -9 0 -19 -4 -21 -9 -1 -5
-39 -37 -83 -72 -82 -65 -197 -177 -365 -355 -75 -79 -109 -107 -161 -132
-196 -94 -420 -89 -684 17 l-77 31 -109 -11 c-129 -13 -224 -9 -245 12 -14 15
-19 40 -15 84 1 17 12 22 77 33 94 14 184 54 213 93 12 16 17 29 12 29 -16 0
-24 161 -12 240 26 163 101 290 236 396 93 73 316 162 495 198 97 19 241 38
246 33 3 -3 -10 -14 -28 -26 -25 -17 -27 -21 -10 -16 l23 7 -24 -39 c-70 -111
-147 -301 -147 -361 1 -31 7 -20 46 78 62 158 130 284 185 341 l45 49 -60 -1
c-34 -1 -104 -7 -158 -14z"/>
<path d="M830 1196 c-134 -70 -160 -91 -144 -117 18 -29 141 -41 199 -19 29
11 52 52 56 103 6 62 -34 74 -111 33z m82 -55 c-13 -42 -20 -50 -45 -55 -44
-9 -177 -7 -177 2 0 4 17 14 37 21 20 8 61 29 92 47 31 18 68 33 82 34 l26 0
-15 -49z"/>
</svg>
